<svg width="191" height="97" viewBox="0 0 191 97" fill="none" xmlns="http://www.w3.org/2000/svg">
<rect x="6" width="185" height="84" fill="white"/>
<path d="M84.3859 48.8056C76.3412 58.3405 68.2965 67.849 60.2518 77.3311C59.3776 78.3598 59.1026 78.3598 58.2382 77.341C50.3114 67.9743 42.3812 58.6108 34.4479 49.2507C34.3398 49.1221 34.2515 48.9836 34.1237 48.8452C34.0942 48.6584 34.0942 48.4681 34.1237 48.2814C34.2469 48.1046 34.3815 47.9361 34.5264 47.7769C37.7286 44.5426 40.9406 41.328 44.1329 38.0838C44.288 37.9165 44.4771 37.7848 44.6873 37.6978C44.8975 37.6107 45.1239 37.5704 45.351 37.5794C54.6136 37.5892 63.8796 37.5892 73.1489 37.5794C73.3753 37.5713 73.6008 37.6131 73.8095 37.702C74.0182 37.7908 74.2051 37.9245 74.3571 38.0937C76.1841 39.9631 78.0308 41.8028 79.8675 43.6624C81.3802 45.1856 82.8732 46.7187 84.3859 48.2518V48.8057V48.8056ZM56.5978 72.4153C56.5628 72.352 56.5333 72.2859 56.5094 72.2176C56.5015 72.1852 56.4982 72.152 56.4996 72.1187C56.4407 71.9704 56.3719 71.822 56.3031 71.6044C54.3877 66.3918 52.4756 61.1793 50.5667 55.9668C50.2622 55.1458 50.3506 54.859 51.0873 54.5128C51.5981 54.5128 51.824 54.8194 51.991 55.2645C54.2109 61.3277 56.4374 67.3941 58.6704 73.4639C58.8374 73.9287 59.024 74.3936 59.2401 74.9574C59.3579 74.6706 59.4267 74.5123 59.4857 74.3442C61.0376 70.1306 62.5863 65.9171 64.1317 61.7035C65.6641 57.5394 67.1898 53.372 68.7091 49.2013C68.8072 48.9442 68.9055 48.6969 68.5421 48.4892C65.448 45.4922 62.3473 42.4953 59.2401 39.4983C56.3915 42.2579 53.5921 44.9581 50.6944 47.7573H64.888C65.556 47.7573 65.7328 47.8957 65.9096 48.6277C65.7819 49.1618 65.4283 49.3497 64.8979 49.3497C60.1044 49.3398 55.3012 49.3497 50.5078 49.3497H49.8202C50.0854 50.0816 50.3408 50.7344 50.5765 51.3971C50.8123 52.0697 50.7533 52.2774 50.1247 52.7126C49.6041 52.7719 49.2898 52.5444 49.1228 52.0499C48.8576 51.2883 48.5531 50.5366 48.3075 49.775C48.1995 49.4585 48.0619 49.3398 47.7182 49.3497C44.182 49.3596 40.6459 49.3629 37.1098 49.3596C36.9821 49.3596 36.8445 49.3793 36.6383 49.3991C36.9428 49.7552 37.1785 50.042 37.4241 50.3388C40.0271 53.405 42.63 56.4744 45.233 59.5472C47.394 62.109 49.5583 64.6674 51.7258 67.2226C53.1992 68.9634 54.6824 70.6943 56.195 72.4747C56.2204 72.4925 56.2466 72.5091 56.2736 72.5242L56.2834 72.5934C56.4602 72.8109 56.6272 73.0286 56.804 73.2462C56.8433 73.2264 56.8728 73.2067 56.9121 73.1869C56.804 72.9594 56.7058 72.7319 56.5879 72.5143C56.5879 72.4846 56.5978 72.4748 56.5978 72.4154L56.5978 72.4153ZM71.8915 42.4656C71.479 42.1689 71.4299 41.7831 71.5969 41.3282C71.8522 40.6457 72.0978 39.9533 72.3728 39.2016H61.2243C64.0041 41.9018 66.7053 44.5032 69.4556 47.1638C69.7306 46.422 69.9664 45.7989 70.2021 45.1659C70.4575 44.4735 70.5852 44.3845 71.3612 44.4339C71.813 44.701 71.9112 45.0867 71.7246 45.5714C71.4594 46.2835 71.204 47.0056 70.9486 47.7177H81.4883C78.9442 45.156 76.3609 42.5448 73.7972 39.9533C73.5811 40.527 73.3453 41.16 73.1096 41.793C72.8444 42.4953 72.6774 42.5942 71.8916 42.4656H71.8915ZM70.8995 62.3168C74.5437 58.0142 78.1879 53.7116 81.891 49.3398H81.39C77.8736 49.3398 74.3571 49.3497 70.8406 49.33C70.4379 49.33 70.2807 49.4684 70.153 49.8245C68.3653 54.7501 66.5645 59.6692 64.7506 64.5817C63.7094 67.4105 62.6781 70.2295 61.6368 73.0582C61.6663 73.0879 61.7056 73.1077 61.735 73.1373C64.78 69.537 67.8152 65.9565 70.8995 62.3166L70.8995 62.3168ZM53.209 43.1183C54.5351 41.8424 55.8513 40.5664 57.2559 39.2114H46.1073C47.0895 41.8819 48.0423 44.4832 49.0246 47.1736C50.4587 45.7889 51.8044 44.4833 53.209 43.1183ZM46.2939 44.325C45.7537 42.8512 45.2134 41.3874 44.683 39.9532L36.9625 47.7274H47.5316C47.1288 46.5801 46.7261 45.4921 46.2939 44.325Z" fill="#412762"/>
<path d="M50.2015 52.701C50.7417 52.2658 50.8105 52.0482 50.5747 51.3855C50.3389 50.7228 50.0934 50.0601 49.8184 49.3381H64.896C65.4265 49.3381 65.7801 49.1601 65.9667 48.5864C66.8704 48.5469 67.7151 48.5469 68.5697 48.5469C68.9135 48.6952 68.8153 48.9425 68.717 49.1997C67.1847 53.3638 65.6589 57.5312 64.1397 61.7019C62.5976 65.9154 61.0489 70.129 59.4936 74.3425C59.4347 74.5107 59.3659 74.6689 59.2481 74.9557C59.032 74.392 58.8453 73.9271 58.6783 73.4622C56.4486 67.399 54.2222 61.3326 51.999 55.2628C51.832 54.8177 51.6061 54.5111 51.0265 54.4913C50.7024 53.878 50.447 53.2945 50.2015 52.701Z" fill="#01C3FE"/>
<path d="M50.1626 52.703C50.4573 53.2964 50.7028 53.88 50.9877 54.4933C50.3492 54.8593 50.2706 55.1461 50.5653 55.9671C52.4807 61.1796 54.3863 66.3921 56.3017 71.6739C56.3555 71.8496 56.4211 72.0215 56.4981 72.1882C56.5052 72.214 56.5085 72.2406 56.5079 72.2673C56.5265 72.3425 56.5599 72.4131 56.6061 72.475C56.5993 72.4834 56.5958 72.4939 56.5963 72.5047C56.4887 72.5196 56.3797 72.5196 56.2721 72.5047L56.2623 72.475C56.2338 72.4418 56.1962 72.4177 56.1543 72.4058C54.6711 70.6749 53.1911 68.9374 51.7145 67.1933C49.5437 64.6414 47.3925 62.0796 45.2217 59.5179C42.6187 56.4517 40.0157 53.3822 37.4128 50.3094C37.1672 50.0226 36.9315 49.7357 36.627 49.3698C36.8332 49.35 36.9707 49.3302 37.0984 49.3302C40.6346 49.3302 44.1707 49.3269 47.7068 49.3203C48.0506 49.3203 48.1882 49.4291 48.2962 49.7456C48.5516 50.5072 48.8561 51.2589 49.1115 52.0206C49.2884 52.5348 49.6027 52.7623 50.1626 52.703Z" fill="#0296DB"/>
<path d="M70.8797 62.3467C67.815 65.9569 64.77 69.5506 61.7447 73.1278C61.7152 73.0981 61.6759 73.0784 61.6465 73.0487C62.6877 70.2199 63.719 67.4009 64.7603 64.5722C66.5676 59.6564 68.3684 54.7373 70.1627 49.8148C70.2904 49.4489 70.4475 49.3203 70.8503 49.3203C74.3667 49.3401 77.8832 49.3302 81.3997 49.3302H81.9007C78.1877 53.7119 74.5435 58.0144 70.8797 62.3467Z" fill="#88D9FE"/>
<path d="M68.5527 48.5049C67.7178 48.5346 66.8632 48.5346 65.9792 48.5445C65.7435 47.8917 65.5666 47.7433 64.8987 47.7433H50.7051C53.6027 44.9442 56.4022 42.2341 59.2507 39.4844C62.3448 42.4913 65.4455 45.4981 68.5527 48.5049Z" fill="#88D9FE"/>
<path d="M71.3104 44.3839C70.5836 44.3839 70.4559 44.4729 70.2005 45.1653C69.9648 45.7983 69.729 46.4215 69.454 47.1633C66.7037 44.5026 64.0025 41.8914 61.2227 39.2109H72.3713C72.0963 39.9627 71.8605 40.655 71.5953 41.3375C71.4186 41.7925 71.4775 42.1782 71.8998 42.5442C71.7132 43.197 71.5167 43.7905 71.3104 44.3839Z" fill="#03C1FC"/>
<path d="M71.3304 44.4119C71.5071 43.7887 71.7134 43.1953 71.9295 42.5722C72.6761 42.6018 72.843 42.5029 73.1082 41.8007C73.344 41.1676 73.5797 40.5445 73.7958 39.9609C76.3693 42.5524 78.9429 45.1537 81.4869 47.7253H70.9473C71.2027 47.0132 71.458 46.2912 71.7233 45.579C71.9099 45.0844 71.8117 44.7086 71.3304 44.4119Z" fill="#A5E9FE"/>
<path d="M46.312 44.3644C46.7245 45.492 47.1273 46.5899 47.5398 47.7274H36.9707L44.6912 39.9531C45.2119 41.3873 45.7521 42.8511 46.312 44.3644Z" fill="#02AAEE"/>
<path d="M56.2734 72.5395C56.3775 72.5209 56.4824 72.5077 56.5878 72.5C56.7041 72.7151 56.809 72.9363 56.9021 73.1627C56.8628 73.1825 56.8333 73.2022 56.794 73.222C56.627 73.0044 56.4601 72.7868 56.2734 72.5395Z" fill="#157CC0"/>
<path d="M56.4984 72.1561C56.4146 72.0168 56.3489 71.8672 56.3027 71.7109C56.3825 71.8523 56.4481 72.0015 56.4984 72.1561Z" fill="#157CC0"/>
<path d="M56.5958 72.4473C56.5501 72.4041 56.5163 72.3496 56.498 72.2891C56.5372 72.3087 56.5665 72.3582 56.5958 72.4473Z" fill="#157CC0"/>
<path d="M56.1758 72.4244C56.1953 72.4145 56.2247 72.4343 56.2638 72.4739C56.2443 72.4838 56.2149 72.464 56.1758 72.4244Z" fill="#157CC0"/>
<path d="M53.1895 43.1455C51.8144 44.4808 50.4588 45.7864 49.0247 47.181C48.0425 44.5005 47.0799 41.8893 46.1074 39.2188H57.2561C55.8613 40.5639 54.5352 41.8399 53.1895 43.1455Z" fill="#03C0FC"/>
<path d="M26.4883 16.4688C30.5979 17.3564 33.8954 18.1636 36.0409 18.7067C46.0392 21.2378 49.5815 22.733 54.0754 21.2705C56.0153 20.6222 57.7982 19.5704 59.3084 18.1833C61.0021 17.5702 62.6507 17.9089 63.3216 18.9028C63.9153 19.7824 63.606 20.9717 63.4954 21.3967C63.1217 22.8339 62.1413 23.7203 61.8567 23.9928C60.7428 25.0592 59.4444 27.1002 58.7221 31.3923C58.3083 32.8216 57.5005 34.7236 55.7724 36.0653C52.9506 38.2563 49.8907 37.2334 45.8977 38.0811C43.403 38.6107 40.0549 39.9742 36.4342 43.6794C35.4266 42.5616 34.1938 40.8341 34.5164 39.0404C35.2367 35.0344 43.0146 34.5952 43.1474 31.8567C43.2595 29.5457 37.7743 28.7467 32.1564 23.6112C29.9067 21.5445 27.9939 19.1342 26.4883 16.4688V16.4688Z" fill="#EDF3FF"/>
<path opacity="0.9961" d="M41.2862 36.7969L42.9383 38.2964L39.1795 44.2693L35.5332 41.8035L41.2862 36.7969Z" fill="#D4E7F7" stroke="#D4E7F7"/>
<path d="M53.74 22.5977L36.9033 18.6002C36.4433 16.8428 35.9834 15.0855 35.5234 13.3281L55.9795 20.2332L53.74 22.5977Z" fill="#E0EDFD" stroke="#E0EDFD"/>
<path opacity="0.9961" d="M43.3797 37.6094L45.4034 38.4066L42.4279 44.2996L39.1797 44.2752L43.3797 37.6094Z" fill="#D4E7F7" stroke="#D4E7F7"/>
<path d="M65.8265 20.0035L63.4375 20.2656L63.6978 22.6712L66.0868 22.4091L65.8265 20.0035Z" fill="#FFC36E"/>
<path opacity="0.9176" d="M57.5293 13.6626L61.974 14.6593C62.6171 14.5136 63.1946 14.1588 63.6175 13.6497C63.9186 13.2786 64.1256 12.8394 64.2209 12.37L59.1583 11.7656L57.5293 13.6626Z" fill="#95D8A5"/>
<path opacity="0.9961" d="M63.9015 10.2514L68.0835 7.73381L68.512 4.76249C67.3377 4.7113 66.1835 5.0815 65.2549 5.80716C64.6527 6.29466 64.1765 6.9217 63.8672 7.63472L63.9015 10.2514Z" fill="#CDF4A0"/>
<path d="M41.7064 24.078L49.4491 29.0246C49.507 29.0617 49.548 29.1204 49.563 29.1878C49.578 29.2553 49.5657 29.326 49.5289 29.3844L47.9626 30.1303C47.0071 30.5134 46.1621 31.1314 45.5047 31.9279L33.0089 25.7251C32.9509 25.6881 32.91 25.6294 32.895 25.5619C32.88 25.4945 32.8922 25.4238 32.929 25.3654L32.1562 23.6172C35.2164 24.7584 38.5519 24.9194 41.7064 24.0781V24.078Z" fill="#E0EDFD" stroke="#E0EDFD"/>
<path d="M25 15.6748C25.3122 15.2212 25.7247 15.2039 26.1877 15.3172C29.2033 16.0549 32.2199 16.7883 35.2375 17.5174C35.4074 17.5586 35.5807 17.5855 35.8512 17.6384C35.7246 17.3641 35.6275 17.1592 35.5351 16.9521C34.991 15.7328 34.5411 14.4836 34.3842 13.1465C34.2901 12.344 34.7078 12.0055 35.4775 12.2782C37.6014 13.0307 39.7202 13.7981 41.8413 14.5591C46.402 16.1955 50.962 17.834 55.5212 19.4746C55.8227 19.5836 56.005 19.5119 56.2199 19.3031C57.5352 18.0244 59.092 17.2632 60.9294 17.1183C62.267 17.0128 63.321 17.5237 64.0572 18.6385C64.2499 18.9507 64.5351 19.1939 64.8726 19.3339C65.3967 19.5546 65.9071 19.8084 66.5115 20.0891L64.3172 14.5713C63.6981 15.0078 63.0129 15.3403 62.2881 15.5558C60.4367 16.0982 58.0415 15.3857 56.8223 13.902C56.2321 13.1837 56.2285 12.8113 56.911 12.1969C58.6108 10.6667 60.5559 10.4098 62.6716 11.144C62.8076 11.1911 62.9414 11.2443 63.0958 11.302C63.1905 11.0544 63.0439 10.8718 62.9855 10.6922C62.4553 9.06172 62.0025 7.41002 61.601 5.74339C61.4859 5.26577 61.6874 4.85419 62.0939 4.74507C62.4842 4.64031 62.8181 4.85755 62.9681 5.3473C63.135 5.89242 63.1837 6.47145 63.4054 7.00652C63.5784 6.9549 63.5965 6.80439 63.6618 6.69774C64.6361 5.1057 66.0171 4.15626 67.8914 4.01864C68.3669 3.98374 68.8741 3.9493 69.2642 4.39958C69.3306 4.83597 69.3755 5.25069 69.4248 5.70665C69.2427 6.83254 68.8689 7.8316 68.1314 8.66939C67.3031 9.65106 66.1459 10.2926 64.8791 10.4726C64.5066 10.5256 64.4616 10.6352 64.5799 10.9868C66.0809 15.4485 67.8938 19.7819 69.843 24.06C69.9043 24.1946 69.9732 24.3265 70.0237 24.4651C70.0994 24.6363 70.106 24.8306 70.0421 25.0067C69.9782 25.1827 69.8488 25.3269 69.6813 25.4087C69.5975 25.4496 69.5062 25.4728 69.4132 25.4769C69.3201 25.481 69.2272 25.4659 69.1402 25.4325C69.0532 25.3991 68.9738 25.3481 68.9071 25.2826C68.8404 25.2172 68.7876 25.1387 68.7521 25.052C68.3899 24.3078 68.0563 23.5492 67.7153 22.7946C67.4327 22.1692 67.436 22.1694 66.7881 22.351C65.8828 22.6048 64.9766 22.8554 64.0714 23.1098C63.9691 23.1251 63.8715 23.1633 63.7858 23.2216C63.1849 23.7922 62.4002 24.1246 61.8323 24.7282C61.5091 25.0985 61.2994 25.5552 61.2285 26.0429C60.7708 28.4718 60.1028 30.8324 58.8785 32.9961C57.3786 35.6468 55.2738 37.578 52.3248 38.4774C50.4459 39.0505 48.5364 39.0818 46.6063 38.8146C45.5698 38.6711 45.8385 38.5482 45.4783 39.4921C44.9875 40.7787 44.5124 42.0713 44.0532 43.37C43.6887 44.4067 42.9934 44.9535 41.9004 45.0479C39.919 45.2192 38.0457 44.9731 36.4347 43.6825C35.1879 42.6837 34.4758 41.3398 34.0741 39.8134C33.9614 39.476 33.8943 39.1249 33.8746 38.7694C33.8813 37.9176 34.2263 37.2483 34.9593 36.8086C37.0834 35.5345 39.2099 34.2643 41.3387 32.9982C41.7916 32.7285 42.2182 32.7951 42.4268 33.1497C42.6673 33.5587 42.5222 33.965 42.0337 34.2562C39.9951 35.4715 37.9566 36.6871 35.9183 37.9029C35.3047 38.2687 35.2394 38.4309 35.376 39.1276C35.4689 39.652 35.6377 40.1598 35.8771 40.6347C36.7255 39.9727 37.5369 39.3408 38.3468 38.707C39.1372 38.0885 39.9359 37.4803 40.7127 36.8448C41.4871 36.2112 42.313 36.1112 43.2317 36.4728C44.6122 37.0335 46.0683 37.3825 47.5516 37.5082C50.9787 37.7659 54.002 36.9106 56.3224 34.199C57.5721 32.7386 58.3774 31.0292 58.9757 29.2146C59.327 28.1608 59.5975 27.0815 59.7847 25.986C59.8764 25.3302 60.1182 24.7047 60.491 24.1591C60.8639 23.6135 61.3576 23.1626 61.9331 22.842C62.9632 22.2385 63.3693 21.2569 63.1559 20.1224C63.0666 19.6359 62.799 19.201 62.4063 18.9037C62.0135 18.6064 61.5242 18.4686 61.0352 18.5175C59.3878 18.6725 57.8681 19.4771 56.8076 20.756C56.4337 21.1945 56.0834 21.6534 55.7243 22.1048C54.9028 23.1376 53.8439 23.4845 52.5791 23.1792C45.6992 21.5184 38.8202 19.854 31.9421 18.1862C30.3557 17.8022 28.7694 17.4181 27.2035 17.0389C27.1881 17.0462 27.1747 17.0571 27.1641 17.0705C27.1536 17.084 27.1462 17.0997 27.1427 17.1165C27.1391 17.1333 27.1394 17.1506 27.1436 17.1672C27.1478 17.1839 27.1557 17.1993 27.1667 17.2124C28.789 19.8367 30.8438 21.9876 33.7211 23.2187C35.2543 23.8829 36.922 24.1717 38.5875 24.0614C39.689 24.0035 40.7811 23.8254 41.8445 23.5304C42.3783 23.376 42.7619 23.5258 42.8901 23.9018C43.0411 24.3447 42.8472 24.71 42.3672 24.855C39.357 25.7641 36.3682 25.7491 33.4065 24.6346C33.2996 24.5943 33.1927 24.5538 32.9805 24.4736C34.3799 26.4297 36.0824 27.7207 38.4074 27.995C40.6559 28.2603 42.7062 27.5584 44.6805 26.5631C44.983 26.4106 45.2767 26.2407 45.5752 26.0801C46.0388 25.8306 46.4687 25.8942 46.6668 26.2403C46.895 26.639 46.7646 27.0301 46.2846 27.3065C44.9264 28.0886 43.515 28.7446 41.9854 29.1162C41.818 29.1568 41.6576 29.2264 41.4169 29.309C41.8928 29.7722 42.4635 30.1252 43.089 30.3432C44.5168 30.8619 45.8359 30.5503 47.0892 29.7832C47.9017 29.2858 48.5827 28.6333 49.2448 27.9545C49.6356 27.5538 50.1254 27.5566 50.386 27.9381C50.4892 28.0681 50.5411 28.2318 50.5318 28.398C50.5225 28.5641 50.4527 28.7209 50.3358 28.8385C49.1402 30.1564 47.81 31.2858 46.0618 31.7916C44.2005 32.3302 42.5115 31.9175 40.9661 30.8057C40.6122 30.5645 40.2882 30.2817 40.0009 29.9631C39.8684 29.8002 39.7008 29.6698 39.5109 29.5818C39.3209 29.4937 39.1135 29.4504 38.9045 29.4551C36.0876 29.3546 33.9344 27.9877 32.2136 25.8292C31.5932 25.0559 31.067 24.2104 30.6465 23.3109C30.5759 23.1474 30.4659 23.0043 30.3265 22.8945C28.1637 21.2322 26.4178 19.0829 25.2287 16.6187C25.1919 16.5599 25.1496 16.5048 25.1023 16.4542C25.0561 16.1922 25.0302 15.9534 25 15.6748ZM50.9385 21.3215C51.596 21.4808 52.2527 21.6441 52.9114 21.7984C53.8019 22.0071 54.4749 21.6614 54.8843 20.7555L35.9998 13.9863C36.334 15.4465 36.9611 16.8224 37.8427 18.0296C37.9601 18.1884 38.1377 18.2157 38.3074 18.2572C39.036 18.4352 39.7659 18.608 40.4949 18.7846C43.9541 19.6227 47.4134 20.4617 50.9385 21.3215ZM39.5646 41.9087C40.5022 40.5261 41.4398 39.1433 42.4033 37.7224C41.9476 37.6216 41.7283 37.874 41.4934 38.0567C40.1916 39.0692 38.8938 40.087 37.6001 41.1102C37.2905 41.354 36.9864 41.6052 36.6543 41.8735C37.1263 42.5205 37.7456 42.8969 38.4185 43.2028C38.6177 43.2933 38.7112 43.166 38.8069 43.0222C39.044 42.6659 39.2875 42.3139 39.5646 41.9087ZM41.6984 41.2929C41.2189 42.0548 40.6429 42.757 40.2145 43.5787C40.7396 43.7541 41.195 43.6189 41.6469 43.6244C42.274 43.632 42.4888 43.4741 42.7028 42.8958C43.2063 41.5353 43.7078 40.1741 44.2076 38.8122C44.2662 38.6513 44.4477 38.457 44.1885 38.3089C43.9391 38.1663 43.7618 38.2509 43.6027 38.4901C42.9887 39.4131 42.3593 40.3256 41.6984 41.2929ZM62.751 13.8705C62.9947 13.7414 63.2182 13.5767 63.4142 13.382C62.2194 11.7681 59.0211 11.9285 58.1115 13.1174C58.8563 14.25 61.0451 14.6224 62.751 13.8705ZM65.221 6.90244C64.7726 7.53127 64.4447 8.20325 64.422 9.01239C64.4961 9.02692 64.5711 9.036 64.6465 9.03954C66.1965 8.9487 67.8059 7.37529 67.9555 5.8233C67.9878 5.4878 67.8402 5.44346 67.5673 5.48836C66.622 5.64395 65.8834 6.14901 65.221 6.90244ZM64.7449 21.3681C64.9748 21.4158 65.1462 21.2734 65.3997 21.1977C65.1304 21.0552 64.929 20.9193 64.6494 20.937C64.6307 21.0114 64.6295 21.0891 64.6461 21.164C64.6627 21.2389 64.6965 21.3088 64.7449 21.3681Z" fill="#412762"/>
<path d="M59.8332 20.3447C59.9212 20.2182 60.0484 20.1245 60.1949 20.0785C60.3414 20.0325 60.4988 20.0368 60.6427 20.0905C60.9543 20.1975 61.0868 20.4544 61.1246 20.7674C61.1557 20.971 61.1753 21.1763 61.1831 21.3821C61.1961 21.5606 61.1416 21.7375 61.0307 21.8774C60.9197 22.0172 60.7604 22.1097 60.5847 22.1364C60.2218 22.1934 59.923 21.9909 59.8096 21.5831C59.6982 21.183 59.6405 20.7766 59.8332 20.3447Z" fill="#412762"/>
<path d="M87.12 70V47.62H87.15L98.52 63.76L97.29 63.52L108.63 47.62H108.69V70H105.81V54.22L105.99 55.69L97.8 67.27H97.74L89.43 55.69L89.94 54.34V70H87.12ZM117.533 62.32C117.533 63.3 117.763 64.18 118.223 64.96C118.703 65.72 119.333 66.32 120.113 66.76C120.893 67.2 121.773 67.42 122.753 67.42C123.773 67.42 124.683 67.2 125.483 66.76C126.283 66.32 126.913 65.72 127.373 64.96C127.833 64.18 128.063 63.3 128.063 62.32V48.31H130.913V62.41C130.913 63.99 130.543 65.37 129.803 66.55C129.083 67.73 128.103 68.64 126.863 69.28C125.643 69.92 124.273 70.24 122.753 70.24C121.233 70.24 119.863 69.92 118.643 69.28C117.423 68.64 116.453 67.73 115.733 66.55C115.013 65.37 114.653 63.99 114.653 62.41V48.31H117.533V62.32ZM134.325 70L143.805 47.41H143.985L153.435 70H150.105L143.025 51.97L145.095 50.62L137.175 70H134.325ZM139.875 61.78H147.945L148.905 64.3H139.035L139.875 61.78ZM163.1 48.31C165.28 48.31 166.99 48.76 168.23 49.66C169.49 50.54 170.12 51.92 170.12 53.8C170.12 54.94 169.86 55.93 169.34 56.77C168.82 57.61 168.09 58.27 167.15 58.75C166.23 59.23 165.14 59.5 163.88 59.56L163.46 58.06C164.92 58.1 166.23 58.36 167.39 58.84C168.55 59.32 169.47 59.99 170.15 60.85C170.83 61.71 171.17 62.73 171.17 63.91C171.17 64.99 170.97 65.92 170.57 66.7C170.17 67.46 169.63 68.09 168.95 68.59C168.27 69.07 167.5 69.43 166.64 69.67C165.78 69.89 164.89 70 163.97 70H157.52V48.31H163.1ZM163.7 57.82C164.9 57.82 165.77 57.49 166.31 56.83C166.85 56.15 167.12 55.33 167.12 54.37C167.12 53.23 166.77 52.4 166.07 51.88C165.37 51.36 164.43 51.1 163.25 51.1H160.43V57.82H163.7ZM163.82 67.3C164.62 67.3 165.35 67.18 166.01 66.94C166.69 66.7 167.22 66.33 167.6 65.83C168 65.33 168.2 64.7 168.2 63.94C168.2 63.1 167.97 62.44 167.51 61.96C167.07 61.48 166.5 61.14 165.8 60.94C165.1 60.72 164.38 60.61 163.64 60.61H160.43V67.3H163.82Z" fill="#412762"/>
</svg>
