<svg width="30" height="42" viewBox="0 0 30 42" fill="none" xmlns="http://www.w3.org/2000/svg">
<path fill-rule="evenodd" clip-rule="evenodd" d="M15.37 32.2649L6.19793 36.8736C5.87997 37.0335 5.48453 36.9224 5.31332 36.6255C5.14211 36.3286 5.26033 35.9575 5.5783 35.7977L15.6635 30.7292C15.8633 30.6298 16.0997 30.6321 16.2954 30.7353C16.4911 30.8388 16.6174 31.0287 16.6296 31.2384L17.1188 40.961C17.1392 41.2978 16.858 41.5844 16.4992 41.6004C16.1364 41.6164 15.8307 41.3556 15.8144 41.0188L15.37 32.2649Z" fill="#142D36"/>
<path fill-rule="evenodd" clip-rule="evenodd" d="M28.774 28.716L24.5915 23.8366C24.3673 23.5733 23.9556 23.5306 23.6703 23.7411C23.389 23.952 23.3442 24.3368 23.5684 24.6001L27.7508 29.4795C27.9791 29.7429 28.3908 29.7855 28.6721 29.575C28.9534 29.3642 28.9982 28.9794 28.774 28.716Z" fill="#142D36"/>
<path fill-rule="evenodd" clip-rule="evenodd" d="M14.301 1.12043C14.1746 0.941542 13.9586 0.83687 13.7303 0.844102C13.5021 0.851333 13.2941 0.96969 13.18 1.15581L0.962753 21.4854C0.905682 21.5825 0.877166 21.6925 0.881243 21.804L1.12582 29.0446C1.1299 29.136 1.15438 29.225 1.19922 29.3061L5.30014 36.7035C5.36536 36.8226 5.47135 36.9182 5.6018 36.9753L16.1803 41.6293C16.3556 41.707 16.5594 41.7073 16.7347 41.6304L25.3442 37.8792C25.5032 37.8103 25.6255 37.6855 25.6826 37.5321L28.8826 29.2322C28.903 29.1702 28.9193 29.1051 28.9193 29.0393L29.0823 22.4111C29.0864 22.2874 29.0497 22.1659 28.9764 22.0624L14.301 1.12043ZM2.19386 21.9353L2.43028 28.8676L6.36002 35.9579L16.4575 40.4018L24.5452 36.8794L27.6148 28.9118L27.7697 22.5724L13.7955 2.63218L2.19386 21.9353Z" fill="#142D36"/>
<path fill-rule="evenodd" clip-rule="evenodd" d="M5.8641 23.8397L13.1203 1.27899C13.1977 1.03235 13.4341 0.858802 13.7072 0.84472C13.9844 0.830257 14.2412 0.978683 14.3472 1.2158L24.6771 23.9067C24.7871 24.1411 24.726 24.4129 24.5263 24.5884L16.41 31.7966C16.1735 32.0083 15.8026 32.0219 15.5457 31.8282L6.5204 24.9872L2.2605 29.4323C2.01999 29.6839 1.60825 29.7056 1.33513 29.4807C1.07016 29.2557 1.0457 28.8694 1.28621 28.6178L5.8641 23.8397ZM7.2012 23.9292L15.9248 30.541L23.2951 23.9946L13.8499 3.24938L7.2012 23.9292Z" fill="#142D36"/>
</svg>
